<mxfile host="app.diagrams.net" modified="2020-07-13T09:36:43.573Z" agent="5.0 (Macintosh; Intel Mac OS X 10_15_5) AppleWebKit/537.36 (KHTML, like Gecko) Chrome/83.0.4103.116 Safari/537.36" etag="cOnG8EsIHoGhoHNFDu81" version="13.4.2" type="github">
  <diagram id="n3qdCozQXh6tVkZs50Ip" name="Page-1">
    <mxGraphModel dx="2066" dy="1105" grid="1" gridSize="10" guides="1" tooltips="1" connect="1" arrows="1" fold="1" page="1" pageScale="1" pageWidth="827" pageHeight="1169" math="0" shadow="0">
      <root>
        <mxCell id="0" />
        <mxCell id="1" parent="0" />
        <mxCell id="ZQTQfyNvJONSZ0vAWd5M-17" style="edgeStyle=orthogonalEdgeStyle;rounded=0;orthogonalLoop=1;jettySize=auto;html=1;" edge="1" parent="1" source="ZQTQfyNvJONSZ0vAWd5M-1" target="ZQTQfyNvJONSZ0vAWd5M-12">
          <mxGeometry relative="1" as="geometry" />
        </mxCell>
        <mxCell id="ZQTQfyNvJONSZ0vAWd5M-1" value="Directory" style="rounded=0;whiteSpace=wrap;html=1;fillColor=#f8cecc;strokeColor=#b85450;" vertex="1" parent="1">
          <mxGeometry x="80" y="200" width="50" height="50" as="geometry" />
        </mxCell>
        <mxCell id="ZQTQfyNvJONSZ0vAWd5M-41" style="edgeStyle=orthogonalEdgeStyle;rounded=0;orthogonalLoop=1;jettySize=auto;html=1;" edge="1" parent="1" source="ZQTQfyNvJONSZ0vAWd5M-2" target="ZQTQfyNvJONSZ0vAWd5M-21">
          <mxGeometry relative="1" as="geometry" />
        </mxCell>
        <mxCell id="ZQTQfyNvJONSZ0vAWd5M-2" value="Table" style="rounded=0;whiteSpace=wrap;html=1;fillColor=#dae8fc;strokeColor=#6c8ebf;" vertex="1" parent="1">
          <mxGeometry x="130" y="200" width="50" height="50" as="geometry" />
        </mxCell>
        <mxCell id="ZQTQfyNvJONSZ0vAWd5M-46" style="edgeStyle=orthogonalEdgeStyle;rounded=0;orthogonalLoop=1;jettySize=auto;html=1;entryX=0.5;entryY=0;entryDx=0;entryDy=0;" edge="1" parent="1" source="ZQTQfyNvJONSZ0vAWd5M-3" target="ZQTQfyNvJONSZ0vAWd5M-45">
          <mxGeometry relative="1" as="geometry" />
        </mxCell>
        <mxCell id="ZQTQfyNvJONSZ0vAWd5M-3" value="Offset" style="rounded=0;whiteSpace=wrap;html=1;fillColor=#e1d5e7;strokeColor=#9673a6;" vertex="1" parent="1">
          <mxGeometry x="180" y="200" width="90" height="50" as="geometry" />
        </mxCell>
        <mxCell id="ZQTQfyNvJONSZ0vAWd5M-16" style="edgeStyle=orthogonalEdgeStyle;rounded=0;orthogonalLoop=1;jettySize=auto;html=1;" edge="1" parent="1" source="ZQTQfyNvJONSZ0vAWd5M-4" target="ZQTQfyNvJONSZ0vAWd5M-6">
          <mxGeometry relative="1" as="geometry" />
        </mxCell>
        <mxCell id="ZQTQfyNvJONSZ0vAWd5M-4" value="PTPR" style="rounded=0;whiteSpace=wrap;html=1;fillColor=#d5e8d4;strokeColor=#82b366;" vertex="1" parent="1">
          <mxGeometry x="270" y="335" width="80" height="30" as="geometry" />
        </mxCell>
        <mxCell id="ZQTQfyNvJONSZ0vAWd5M-5" value="" style="shape=table;html=1;whiteSpace=wrap;startSize=0;container=1;collapsible=0;childLayout=tableLayout;fillColor=#1ba1e2;strokeColor=#006EAF;fontColor=#ffffff;" vertex="1" parent="1">
          <mxGeometry x="430" y="330" width="60" height="200" as="geometry" />
        </mxCell>
        <mxCell id="ZQTQfyNvJONSZ0vAWd5M-6" value="" style="shape=partialRectangle;html=1;whiteSpace=wrap;collapsible=0;dropTarget=0;pointerEvents=0;fillColor=none;top=0;left=0;bottom=0;right=0;points=[[0,0.5],[1,0.5]];portConstraint=eastwest;" vertex="1" parent="ZQTQfyNvJONSZ0vAWd5M-5">
          <mxGeometry width="60" height="40" as="geometry" />
        </mxCell>
        <mxCell id="ZQTQfyNvJONSZ0vAWd5M-7" value="" style="shape=partialRectangle;html=1;whiteSpace=wrap;connectable=0;overflow=hidden;fillColor=#bac8d3;top=0;left=0;bottom=0;right=0;strokeColor=#23445d;" vertex="1" parent="ZQTQfyNvJONSZ0vAWd5M-6">
          <mxGeometry width="60" height="40" as="geometry" />
        </mxCell>
        <mxCell id="ZQTQfyNvJONSZ0vAWd5M-8" value="" style="shape=partialRectangle;html=1;whiteSpace=wrap;collapsible=0;dropTarget=0;pointerEvents=0;fillColor=#dae8fc;top=0;left=0;bottom=0;right=0;points=[[0,0.5],[1,0.5]];portConstraint=eastwest;strokeColor=#6c8ebf;" vertex="1" parent="ZQTQfyNvJONSZ0vAWd5M-5">
          <mxGeometry y="40" width="60" height="40" as="geometry" />
        </mxCell>
        <mxCell id="ZQTQfyNvJONSZ0vAWd5M-9" value="" style="shape=partialRectangle;html=1;whiteSpace=wrap;connectable=0;overflow=hidden;fillColor=none;top=0;left=0;bottom=0;right=0;" vertex="1" parent="ZQTQfyNvJONSZ0vAWd5M-8">
          <mxGeometry width="60" height="40" as="geometry" />
        </mxCell>
        <mxCell id="ZQTQfyNvJONSZ0vAWd5M-10" value="" style="shape=partialRectangle;html=1;whiteSpace=wrap;collapsible=0;dropTarget=0;pointerEvents=0;fillColor=none;top=0;left=0;bottom=0;right=0;points=[[0,0.5],[1,0.5]];portConstraint=eastwest;" vertex="1" parent="ZQTQfyNvJONSZ0vAWd5M-5">
          <mxGeometry y="80" width="60" height="40" as="geometry" />
        </mxCell>
        <mxCell id="ZQTQfyNvJONSZ0vAWd5M-11" value="" style="shape=partialRectangle;html=1;whiteSpace=wrap;connectable=0;overflow=hidden;fillColor=#dae8fc;top=0;left=0;bottom=0;right=0;strokeColor=#6c8ebf;" vertex="1" parent="ZQTQfyNvJONSZ0vAWd5M-10">
          <mxGeometry width="60" height="40" as="geometry" />
        </mxCell>
        <mxCell id="ZQTQfyNvJONSZ0vAWd5M-12" value="" style="shape=partialRectangle;html=1;whiteSpace=wrap;collapsible=0;dropTarget=0;pointerEvents=0;fillColor=none;top=0;left=0;bottom=0;right=0;points=[[0,0.5],[1,0.5]];portConstraint=eastwest;" vertex="1" parent="ZQTQfyNvJONSZ0vAWd5M-5">
          <mxGeometry y="120" width="60" height="40" as="geometry" />
        </mxCell>
        <mxCell id="ZQTQfyNvJONSZ0vAWd5M-13" value="" style="shape=partialRectangle;html=1;whiteSpace=wrap;connectable=0;overflow=hidden;fillColor=#dae8fc;top=0;left=0;bottom=0;right=0;strokeColor=#6c8ebf;" vertex="1" parent="ZQTQfyNvJONSZ0vAWd5M-12">
          <mxGeometry width="60" height="40" as="geometry" />
        </mxCell>
        <mxCell id="ZQTQfyNvJONSZ0vAWd5M-14" value="" style="shape=partialRectangle;html=1;whiteSpace=wrap;collapsible=0;dropTarget=0;pointerEvents=0;fillColor=none;top=0;left=0;bottom=0;right=0;points=[[0,0.5],[1,0.5]];portConstraint=eastwest;" vertex="1" parent="ZQTQfyNvJONSZ0vAWd5M-5">
          <mxGeometry y="160" width="60" height="40" as="geometry" />
        </mxCell>
        <mxCell id="ZQTQfyNvJONSZ0vAWd5M-15" value="" style="shape=partialRectangle;html=1;whiteSpace=wrap;connectable=0;overflow=hidden;fillColor=#dae8fc;top=0;left=0;bottom=0;right=0;strokeColor=#6c8ebf;" vertex="1" parent="ZQTQfyNvJONSZ0vAWd5M-14">
          <mxGeometry width="60" height="40" as="geometry" />
        </mxCell>
        <mxCell id="ZQTQfyNvJONSZ0vAWd5M-29" value="" style="shape=table;html=1;whiteSpace=wrap;startSize=0;container=1;collapsible=0;childLayout=tableLayout;fillColor=#bac8d3;strokeColor=#23445d;" vertex="1" parent="1">
          <mxGeometry x="620" y="330" width="60" height="200" as="geometry" />
        </mxCell>
        <mxCell id="ZQTQfyNvJONSZ0vAWd5M-30" value="" style="shape=partialRectangle;html=1;whiteSpace=wrap;collapsible=0;dropTarget=0;pointerEvents=0;fillColor=none;top=0;left=0;bottom=0;right=0;points=[[0,0.5],[1,0.5]];portConstraint=eastwest;" vertex="1" parent="ZQTQfyNvJONSZ0vAWd5M-29">
          <mxGeometry width="60" height="40" as="geometry" />
        </mxCell>
        <mxCell id="ZQTQfyNvJONSZ0vAWd5M-31" value="" style="shape=partialRectangle;html=1;whiteSpace=wrap;connectable=0;overflow=hidden;fillColor=#d0cee2;top=0;left=0;bottom=0;right=0;strokeColor=#56517e;" vertex="1" parent="ZQTQfyNvJONSZ0vAWd5M-30">
          <mxGeometry width="60" height="40" as="geometry" />
        </mxCell>
        <mxCell id="ZQTQfyNvJONSZ0vAWd5M-32" value="" style="shape=partialRectangle;html=1;whiteSpace=wrap;collapsible=0;dropTarget=0;pointerEvents=0;fillColor=#dae8fc;top=0;left=0;bottom=0;right=0;points=[[0,0.5],[1,0.5]];portConstraint=eastwest;strokeColor=#6c8ebf;" vertex="1" parent="ZQTQfyNvJONSZ0vAWd5M-29">
          <mxGeometry y="40" width="60" height="40" as="geometry" />
        </mxCell>
        <mxCell id="ZQTQfyNvJONSZ0vAWd5M-33" value="" style="shape=partialRectangle;html=1;whiteSpace=wrap;connectable=0;overflow=hidden;fillColor=#d0cee2;top=0;left=0;bottom=0;right=0;strokeColor=#56517e;" vertex="1" parent="ZQTQfyNvJONSZ0vAWd5M-32">
          <mxGeometry width="60" height="40" as="geometry" />
        </mxCell>
        <mxCell id="ZQTQfyNvJONSZ0vAWd5M-34" value="" style="shape=partialRectangle;html=1;whiteSpace=wrap;collapsible=0;dropTarget=0;pointerEvents=0;fillColor=none;top=0;left=0;bottom=0;right=0;points=[[0,0.5],[1,0.5]];portConstraint=eastwest;" vertex="1" parent="ZQTQfyNvJONSZ0vAWd5M-29">
          <mxGeometry y="80" width="60" height="40" as="geometry" />
        </mxCell>
        <mxCell id="ZQTQfyNvJONSZ0vAWd5M-35" value="" style="shape=partialRectangle;html=1;whiteSpace=wrap;connectable=0;overflow=hidden;fillColor=#d0cee2;top=0;left=0;bottom=0;right=0;strokeColor=#56517e;" vertex="1" parent="ZQTQfyNvJONSZ0vAWd5M-34">
          <mxGeometry width="60" height="40" as="geometry" />
        </mxCell>
        <mxCell id="ZQTQfyNvJONSZ0vAWd5M-36" value="" style="shape=partialRectangle;html=1;whiteSpace=wrap;collapsible=0;dropTarget=0;pointerEvents=0;fillColor=none;top=0;left=0;bottom=0;right=0;points=[[0,0.5],[1,0.5]];portConstraint=eastwest;" vertex="1" parent="ZQTQfyNvJONSZ0vAWd5M-29">
          <mxGeometry y="120" width="60" height="40" as="geometry" />
        </mxCell>
        <mxCell id="ZQTQfyNvJONSZ0vAWd5M-37" value="" style="shape=partialRectangle;html=1;whiteSpace=wrap;connectable=0;overflow=hidden;fillColor=#d0cee2;top=0;left=0;bottom=0;right=0;strokeColor=#56517e;" vertex="1" parent="ZQTQfyNvJONSZ0vAWd5M-36">
          <mxGeometry width="60" height="40" as="geometry" />
        </mxCell>
        <mxCell id="ZQTQfyNvJONSZ0vAWd5M-38" value="" style="shape=partialRectangle;html=1;whiteSpace=wrap;collapsible=0;dropTarget=0;pointerEvents=0;fillColor=none;top=0;left=0;bottom=0;right=0;points=[[0,0.5],[1,0.5]];portConstraint=eastwest;" vertex="1" parent="ZQTQfyNvJONSZ0vAWd5M-29">
          <mxGeometry y="160" width="60" height="40" as="geometry" />
        </mxCell>
        <mxCell id="ZQTQfyNvJONSZ0vAWd5M-39" value="" style="shape=partialRectangle;html=1;whiteSpace=wrap;connectable=0;overflow=hidden;fillColor=#d0cee2;top=0;left=0;bottom=0;right=0;strokeColor=#56517e;" vertex="1" parent="ZQTQfyNvJONSZ0vAWd5M-38">
          <mxGeometry width="60" height="40" as="geometry" />
        </mxCell>
        <mxCell id="ZQTQfyNvJONSZ0vAWd5M-18" value="" style="shape=table;html=1;whiteSpace=wrap;startSize=0;container=1;collapsible=0;childLayout=tableLayout;fillColor=#1ba1e2;strokeColor=#006EAF;fontColor=#ffffff;" vertex="1" parent="1">
          <mxGeometry x="620" y="570" width="60" height="200" as="geometry" />
        </mxCell>
        <mxCell id="ZQTQfyNvJONSZ0vAWd5M-19" value="" style="shape=partialRectangle;html=1;whiteSpace=wrap;collapsible=0;dropTarget=0;pointerEvents=0;fillColor=none;top=0;left=0;bottom=0;right=0;points=[[0,0.5],[1,0.5]];portConstraint=eastwest;" vertex="1" parent="ZQTQfyNvJONSZ0vAWd5M-18">
          <mxGeometry width="60" height="40" as="geometry" />
        </mxCell>
        <mxCell id="ZQTQfyNvJONSZ0vAWd5M-20" value="" style="shape=partialRectangle;html=1;whiteSpace=wrap;connectable=0;overflow=hidden;fillColor=#b0e3e6;top=0;left=0;bottom=0;right=0;strokeColor=#0e8088;" vertex="1" parent="ZQTQfyNvJONSZ0vAWd5M-19">
          <mxGeometry width="60" height="40" as="geometry" />
        </mxCell>
        <mxCell id="ZQTQfyNvJONSZ0vAWd5M-21" value="" style="shape=partialRectangle;html=1;whiteSpace=wrap;collapsible=0;dropTarget=0;pointerEvents=0;fillColor=#dae8fc;top=0;left=0;bottom=0;right=0;points=[[0,0.5],[1,0.5]];portConstraint=eastwest;strokeColor=#6c8ebf;" vertex="1" parent="ZQTQfyNvJONSZ0vAWd5M-18">
          <mxGeometry y="40" width="60" height="40" as="geometry" />
        </mxCell>
        <mxCell id="ZQTQfyNvJONSZ0vAWd5M-22" value="" style="shape=partialRectangle;html=1;whiteSpace=wrap;connectable=0;overflow=hidden;fillColor=#b0e3e6;top=0;left=0;bottom=0;right=0;strokeColor=#0e8088;" vertex="1" parent="ZQTQfyNvJONSZ0vAWd5M-21">
          <mxGeometry width="60" height="40" as="geometry" />
        </mxCell>
        <mxCell id="ZQTQfyNvJONSZ0vAWd5M-23" value="" style="shape=partialRectangle;html=1;whiteSpace=wrap;collapsible=0;dropTarget=0;pointerEvents=0;fillColor=none;top=0;left=0;bottom=0;right=0;points=[[0,0.5],[1,0.5]];portConstraint=eastwest;" vertex="1" parent="ZQTQfyNvJONSZ0vAWd5M-18">
          <mxGeometry y="80" width="60" height="40" as="geometry" />
        </mxCell>
        <mxCell id="ZQTQfyNvJONSZ0vAWd5M-24" value="" style="shape=partialRectangle;html=1;whiteSpace=wrap;connectable=0;overflow=hidden;fillColor=#b0e3e6;top=0;left=0;bottom=0;right=0;strokeColor=#0e8088;" vertex="1" parent="ZQTQfyNvJONSZ0vAWd5M-23">
          <mxGeometry width="60" height="40" as="geometry" />
        </mxCell>
        <mxCell id="ZQTQfyNvJONSZ0vAWd5M-25" value="" style="shape=partialRectangle;html=1;whiteSpace=wrap;collapsible=0;dropTarget=0;pointerEvents=0;fillColor=none;top=0;left=0;bottom=0;right=0;points=[[0,0.5],[1,0.5]];portConstraint=eastwest;" vertex="1" parent="ZQTQfyNvJONSZ0vAWd5M-18">
          <mxGeometry y="120" width="60" height="40" as="geometry" />
        </mxCell>
        <mxCell id="ZQTQfyNvJONSZ0vAWd5M-26" value="" style="shape=partialRectangle;html=1;whiteSpace=wrap;connectable=0;overflow=hidden;fillColor=#b0e3e6;top=0;left=0;bottom=0;right=0;strokeColor=#0e8088;" vertex="1" parent="ZQTQfyNvJONSZ0vAWd5M-25">
          <mxGeometry width="60" height="40" as="geometry" />
        </mxCell>
        <mxCell id="ZQTQfyNvJONSZ0vAWd5M-27" value="" style="shape=partialRectangle;html=1;whiteSpace=wrap;collapsible=0;dropTarget=0;pointerEvents=0;fillColor=none;top=0;left=0;bottom=0;right=0;points=[[0,0.5],[1,0.5]];portConstraint=eastwest;" vertex="1" parent="ZQTQfyNvJONSZ0vAWd5M-18">
          <mxGeometry y="160" width="60" height="40" as="geometry" />
        </mxCell>
        <mxCell id="ZQTQfyNvJONSZ0vAWd5M-28" value="" style="shape=partialRectangle;html=1;whiteSpace=wrap;connectable=0;overflow=hidden;fillColor=#b0e3e6;top=0;left=0;bottom=0;right=0;strokeColor=#0e8088;" vertex="1" parent="ZQTQfyNvJONSZ0vAWd5M-27">
          <mxGeometry width="60" height="40" as="geometry" />
        </mxCell>
        <mxCell id="ZQTQfyNvJONSZ0vAWd5M-40" style="edgeStyle=orthogonalEdgeStyle;rounded=0;orthogonalLoop=1;jettySize=auto;html=1;entryX=0;entryY=0.75;entryDx=0;entryDy=0;entryPerimeter=0;" edge="1" parent="1" source="ZQTQfyNvJONSZ0vAWd5M-12" target="ZQTQfyNvJONSZ0vAWd5M-19">
          <mxGeometry relative="1" as="geometry" />
        </mxCell>
        <mxCell id="ZQTQfyNvJONSZ0vAWd5M-43" style="edgeStyle=orthogonalEdgeStyle;rounded=0;orthogonalLoop=1;jettySize=auto;html=1;dashed=1;" edge="1" parent="1" source="ZQTQfyNvJONSZ0vAWd5M-8" target="ZQTQfyNvJONSZ0vAWd5M-30">
          <mxGeometry relative="1" as="geometry" />
        </mxCell>
        <mxCell id="ZQTQfyNvJONSZ0vAWd5M-44" value="page number" style="rounded=0;whiteSpace=wrap;html=1;fillColor=#dae8fc;strokeColor=#6c8ebf;" vertex="1" parent="1">
          <mxGeometry x="630" y="200" width="80" height="50" as="geometry" />
        </mxCell>
        <mxCell id="ZQTQfyNvJONSZ0vAWd5M-45" value="offset" style="rounded=0;whiteSpace=wrap;html=1;fillColor=#e1d5e7;strokeColor=#9673a6;" vertex="1" parent="1">
          <mxGeometry x="710" y="200" width="80" height="50" as="geometry" />
        </mxCell>
        <mxCell id="ZQTQfyNvJONSZ0vAWd5M-47" style="edgeStyle=orthogonalEdgeStyle;rounded=0;orthogonalLoop=1;jettySize=auto;html=1;" edge="1" parent="1" source="ZQTQfyNvJONSZ0vAWd5M-21">
          <mxGeometry relative="1" as="geometry">
            <mxPoint x="700" y="250" as="targetPoint" />
            <Array as="points">
              <mxPoint x="700" y="630" />
              <mxPoint x="700" y="250" />
            </Array>
          </mxGeometry>
        </mxCell>
        <mxCell id="2" value="&lt;font style=&quot;font-size: 14px&quot;&gt;Physical Address&lt;/font&gt;" style="text;html=1;align=center;verticalAlign=middle;resizable=0;points=[];autosize=1;" vertex="1" parent="1">
          <mxGeometry x="565" y="260" width="120" height="20" as="geometry" />
        </mxCell>
      </root>
    </mxGraphModel>
  </diagram>
</mxfile>
